<svg width="12" height="8" viewBox="0 0 12 8" fill="none" xmlns="http://www.w3.org/2000/svg">
    <path fillRule="evenodd" clipRule="evenodd" d="M0.351784 7.5013C0.126537 7.27599 0 6.97044 0 6.65184C0 6.33325 0.126537 6.0277 0.351784 5.80238L6.00725 0.146912L11.6627 5.80238C11.8816 6.02899 12.0027 6.33249 12 6.64752C11.9972 6.96255 11.8709 7.2639 11.6481 7.48667C11.4253 7.70944 11.124 7.8358 10.8089 7.83854C10.4939 7.84127 10.1904 7.72017 9.9638 7.5013L6.00725 3.54476L2.05071 7.5013C1.82539 7.72655 1.51984 7.85309 1.20125 7.85309C0.88265 7.85309 0.577099 7.72655 0.351784 7.5013Z" fill="black"/>
</svg>