<svg width="12" height="8" viewBox="0 0 12 8" fill="none" xmlns="http://www.w3.org/2000/svg">
    <path fillRule="evenodd" clipRule="evenodd" d="M11.6482 0.498695C11.8735 0.72401 12 1.02956 12 1.34816C12 1.66675 11.8735 1.9723 11.6482 2.19762L5.99275 7.85309L0.337276 2.19762C0.118413 1.97101 -0.00269127 1.66751 4.57764e-05 1.35248C0.00278378 1.03745 0.129145 0.736099 0.351913 0.513331C0.574681 0.290563 0.876034 0.164202 1.19106 0.161465C1.50609 0.158727 1.8096 0.279832 2.0362 0.498695L5.99275 4.45524L9.94929 0.498695C10.1746 0.273448 10.4802 0.146912 10.7988 0.146912C11.1173 0.146912 11.4229 0.273448 11.6482 0.498695Z" fill="black"/>
</svg>