<svg width="24" height="24" viewBox="0 0 24 24" fill="none" xmlns="http://www.w3.org/2000/svg">
    <mask id="mask0_41_159" maskUnits="userSpaceOnUse" x="1" y="2" width="22" height="20">
        <path d="M3.08043 4.51603L3.1404 4.45605C4.10899 3.51884 5.40486 2.99367 6.75487 2.99367C8.13342 2.99367 9.45552 3.54128 10.4303 4.51604L10.4305 4.51618L11.6465 5.73118L12.0002 6.08459L12.3536 5.73089L13.5674 4.51603C14.5423 3.54111 15.8646 2.99341 17.2434 2.99341C18.6221 2.99341 19.9444 3.54111 20.9193 4.51603C21.8942 5.49096 22.4419 6.81323 22.4419 8.19198C22.4419 9.57073 21.8942 10.893 20.9193 11.8679L19.7043 13.0829L19.3201 13.4672L19.333 13.4781L12.0282 20.7812L12.0181 20.7701L11.9889 20.7993L4.65516 13.4638L4.66605 13.4539L4.29557 13.0831L3.08057 11.8671L3.08043 11.8669C2.10567 10.8921 1.55806 9.57003 1.55806 8.19148C1.55806 6.81293 2.10567 5.49083 3.08043 4.51603Z" fill="white" stroke="#2D3748"/>
    </mask>
    <g mask="url(#mask0_41_159)">
        <path d="M2.72687 12.2215L1.31287 13.6355L2.72687 12.2215ZM2.72687 4.16254L1.31287 2.74854L2.72687 4.16254ZM3.94187 13.4365L5.35587 14.8505L6.76987 13.4365L5.35587 12.0215L3.94187 13.4365ZM3.93087 13.4465L2.51587 12.0335L1.10187 13.4475L2.51587 14.8615L3.93087 13.4475V13.4465ZM11.9889 21.5065L10.5749 22.9195L11.9889 24.3345L13.4029 22.9205L11.9889 21.5055V21.5065ZM12.0009 21.4945L13.4149 20.0805L12.0009 18.6665L10.5859 20.0805L12.0009 21.4945ZM12.0109 21.5055L10.5979 22.9205L12.0119 24.3345L13.4259 22.9195L12.0119 21.5055H12.0109ZM20.0709 13.4475L21.4839 14.8615L22.8989 13.4475L21.4839 12.0335L20.0699 13.4475H20.0709ZM20.0579 13.4365L18.6439 12.0215L17.2299 13.4365L18.6439 14.8505L20.0579 13.4365ZM21.2729 12.2215L19.8589 10.8065L21.2729 12.2215ZM21.2729 4.16254L22.6869 2.74854L21.2729 4.16254ZM13.2139 4.16254L11.7999 2.74854L13.2149 4.16254H13.2139ZM11.9999 5.37754L10.5849 6.79154L11.9999 8.20554L13.4139 6.79154L11.9999 5.37754ZM10.7839 4.16254L9.37087 5.57654L10.7849 4.16254H10.7839ZM4.14087 10.8065C3.79744 10.4631 3.52502 10.0555 3.33915 9.60678C3.15329 9.15809 3.05763 8.67719 3.05763 8.19154C3.05763 7.70588 3.15329 7.22498 3.33915 6.7763C3.52502 6.32761 3.79744 5.91993 4.14087 5.57654L1.31287 2.74854C0.597985 3.46337 0.0309054 4.31201 -0.355989 5.24601C-0.742884 6.18001 -0.942017 7.18108 -0.942017 8.19204C-0.942017 9.203 -0.742884 10.2041 -0.355989 11.1381C0.0309054 12.0721 0.597985 12.9207 1.31287 13.6355L4.14087 10.8065ZM5.35587 12.0215L4.14087 10.8065L1.31287 13.6365L2.52787 14.8515L5.35587 12.0225V12.0215ZM2.52787 12.0215L2.51587 12.0335L5.34487 14.8615L5.35587 14.8505L2.52787 12.0215ZM2.51587 14.8615L10.5749 22.9205L13.4029 20.0915L5.34487 12.0335L2.51587 14.8615ZM13.4029 22.9205L13.4149 22.9085L10.5859 20.0805L10.5749 20.0915L13.4029 22.9205ZM13.4259 20.0915L13.4149 20.0805L10.5859 22.9085L10.5969 22.9205L13.4259 20.0915ZM18.6559 12.0335L10.5979 20.0915L13.4259 22.9205L21.4839 14.8615L18.6559 12.0335ZM18.6449 14.8505L18.6549 14.8615L21.4849 12.0335L21.4729 12.0215L18.6449 14.8505ZM21.4729 14.8505L22.6879 13.6355L19.8599 10.8065L18.6449 12.0215L21.4729 14.8505ZM22.6879 13.6355C23.4028 12.9207 23.9698 12.0721 24.3567 11.1381C24.7436 10.2041 24.9428 9.203 24.9428 8.19204C24.9428 7.18108 24.7436 6.18001 24.3567 5.24601C23.9698 4.31201 23.4028 3.46337 22.6879 2.74854L19.8599 5.57654C20.2033 5.91993 20.4757 6.32761 20.6616 6.7763C20.8474 7.22498 20.9431 7.70588 20.9431 8.19154C20.9431 8.67719 20.8474 9.15809 20.6616 9.60678C20.4757 10.0555 20.2033 10.4631 19.8599 10.8065L22.6879 13.6355ZM22.6879 2.74854C21.973 2.03365 21.1244 1.46657 20.1904 1.07968C19.2564 0.692785 18.2553 0.493652 17.2444 0.493652C16.2334 0.493652 15.2323 0.692785 14.2983 1.07968C13.3643 1.46657 12.5157 2.03365 11.8009 2.74854L14.6299 5.57654C14.9733 5.23311 15.3809 4.96069 15.8296 4.77482C16.2783 4.58896 16.7592 4.4933 17.2449 4.4933C17.7305 4.4933 18.2114 4.58896 18.6601 4.77482C19.1088 4.96069 19.5165 5.23311 19.8599 5.57654L22.6879 2.74854ZM11.8009 2.74854L10.5859 3.96354L13.4149 6.79154L14.6299 5.57654L11.8009 2.74854ZM9.37087 5.57654L10.5859 6.79154L13.4149 3.96354L12.1999 2.74854L9.37087 5.57654ZM4.14087 5.57654C4.48426 5.23311 4.89194 4.96069 5.34063 4.77482C5.78931 4.58896 6.27021 4.4933 6.75587 4.4933C7.24152 4.4933 7.72242 4.58896 8.17111 4.77482C8.61979 4.96069 9.02747 5.23311 9.37087 5.57654L12.1999 2.74854C11.485 2.03365 10.6364 1.46657 9.70239 1.07968C8.76839 0.692785 7.76733 0.493652 6.75637 0.493652C5.74541 0.493652 4.74434 0.692785 3.81034 1.07968C2.87634 1.46657 2.0277 2.03365 1.31287 2.74854L4.14087 5.57654Z" fill="black"/>
    </g>
</svg>