<svg width="25" height="24" viewBox="0 0 25 24" fill="none" xmlns="http://www.w3.org/2000/svg">
    <path d="M20.6255 4H4.62549C4.0732 4 3.62549 4.44772 3.62549 5C3.62549 5.55228 4.0732 6 4.62549 6H20.6255C21.1778 6 21.6255 5.55228 21.6255 5C21.6255 4.44772 21.1778 4 20.6255 4Z" fill="black"/>
    <path d="M20.6255 11H4.62549C4.0732 11 3.62549 11.4477 3.62549 12C3.62549 12.5523 4.0732 13 4.62549 13H20.6255C21.1778 13 21.6255 12.5523 21.6255 12C21.6255 11.4477 21.1778 11 20.6255 11Z" fill="black"/>
    <path d="M20.6255 18H4.62549C4.0732 18 3.62549 18.4477 3.62549 19C3.62549 19.5523 4.0732 20 4.62549 20H20.6255C21.1778 20 21.6255 19.5523 21.6255 19C21.6255 18.4477 21.1778 18 20.6255 18Z" fill="black"/>
</svg>