<svg width="20" height="20" viewBox="0 0 20 20" fill="none" xmlns="http://www.w3.org/2000/svg">
    <mask id="mask0_41_622" maskUnits="userSpaceOnUse" x="0" y="2" width="20" height="16">
        <path d="M2.62595 3.82232L2.67544 3.77283C3.46701 3.00715 4.52592 2.5781 5.62906 2.5781C6.75575 2.5781 7.8363 3.02566 8.63301 3.82234L8.63315 3.82247L9.64648 4.83497L10.0002 5.18838L10.3536 4.83468L11.3651 3.82233C11.3652 3.82228 11.3652 3.82223 11.3653 3.82218C12.162 3.02547 13.2427 2.57788 14.3695 2.57788C15.4963 2.57788 16.577 3.02552 17.3738 3.82233C18.1706 4.61914 18.6183 5.69984 18.6183 6.82669C18.6183 7.95355 18.1706 9.03425 17.3738 9.83106L16.3613 10.8436L15.9771 11.2278L15.9879 11.2369L10.0263 17.197L10.018 17.1878L9.99077 17.215L4.00002 11.2227L4.00908 11.2145L3.63859 10.8437L2.62609 9.83037L2.62595 9.83023C1.82928 9.03352 1.38171 7.95297 1.38171 6.82628C1.38171 5.69958 1.82928 4.61903 2.62595 3.82232Z" fill="white" stroke="#3E77AA"/>
    </mask>
    <g mask="url(#mask0_41_622)">
        <path d="M2.27239 10.1846L1.09406 11.3629L2.27239 10.1846ZM2.27239 3.46878L1.09406 2.29045L2.27239 3.46878ZM3.28489 11.1971L4.46323 12.3754L5.64156 11.1971L4.46323 10.0179L3.28489 11.1971ZM3.27573 11.2054L2.09656 10.0279L0.918226 11.2063L2.09656 12.3846L3.27573 11.2063V11.2054ZM9.99073 17.9221L8.81239 19.0996L9.99073 20.2788L11.1691 19.1004L9.99073 17.9213V17.9221ZM10.0007 17.9121L11.1791 16.7338L10.0007 15.5554L8.82156 16.7338L10.0007 17.9121ZM10.0091 17.9213L8.83156 19.1004L10.0099 20.2788L11.1882 19.0996L10.0099 17.9213H10.0091ZM16.7257 11.2063L17.9032 12.3846L19.0824 11.2063L17.9032 10.0279L16.7249 11.2063H16.7257ZM16.7149 11.1971L15.5366 10.0179L14.3582 11.1971L15.5366 12.3754L16.7149 11.1971ZM17.7274 10.1846L16.5491 9.00545L17.7274 10.1846ZM17.7274 3.46878L18.9057 2.29045L17.7274 3.46878ZM11.0116 3.46878L9.83323 2.29045L11.0124 3.46878H11.0116ZM9.99989 4.48128L8.82073 5.65961L9.99989 6.83795L11.1782 5.65961L9.99989 4.48128ZM8.98656 3.46878L7.80906 4.64711L8.98739 3.46878H8.98656ZM3.45073 9.00545C3.16454 8.71929 2.93752 8.37955 2.78263 8.00565C2.62775 7.63174 2.54803 7.23099 2.54803 6.82628C2.54803 6.42157 2.62775 6.02082 2.78263 5.64691C2.93752 5.27301 3.16454 4.93328 3.45073 4.64711L1.09406 2.29045C0.498323 2.88614 0.0257571 3.59334 -0.296655 4.37168C-0.619067 5.15001 -0.785011 5.98423 -0.785011 6.8267C-0.785011 7.66917 -0.619067 8.50338 -0.296655 9.28172C0.0257571 10.06 0.498323 10.7673 1.09406 11.3629L3.45073 9.00545ZM4.46323 10.0179L3.45073 9.00545L1.09406 11.3638L2.10656 12.3763L4.46323 10.0188V10.0179ZM2.10656 10.0179L2.09656 10.0279L4.45406 12.3846L4.46323 12.3754L2.10656 10.0179ZM2.09656 12.3846L8.81239 19.1004L11.1691 16.7429L4.45406 10.0279L2.09656 12.3846ZM11.1691 19.1004L11.1791 19.0904L8.82156 16.7338L8.81239 16.7429L11.1691 19.1004ZM11.1882 16.7429L11.1791 16.7338L8.82156 19.0904L8.83072 19.1004L11.1882 16.7429ZM15.5466 10.0279L8.83156 16.7429L11.1882 19.1004L17.9032 12.3846L15.5466 10.0279ZM15.5374 12.3754L15.5457 12.3846L17.9041 10.0279L17.8941 10.0179L15.5374 12.3754ZM17.8941 12.3754L18.9066 11.3629L16.5499 9.00545L15.5374 10.0179L17.8941 12.3754ZM18.9066 11.3629C19.5023 10.7673 19.9749 10.06 20.2973 9.28172C20.6197 8.50338 20.7856 7.66917 20.7856 6.8267C20.7856 5.98423 20.6197 5.15001 20.2973 4.37168C19.9749 3.59334 19.5023 2.88614 18.9066 2.29045L16.5499 4.64711C16.8361 4.93328 17.0631 5.27301 17.218 5.64691C17.3729 6.02082 17.4526 6.42157 17.4526 6.82628C17.4526 7.23099 17.3729 7.63174 17.218 8.00565C17.0631 8.37955 16.8361 8.71929 16.5499 9.00545L18.9066 11.3629ZM18.9066 2.29045C18.3109 1.69471 17.6037 1.22215 16.8253 0.899733C16.047 0.577321 15.2128 0.411377 14.3703 0.411377C13.5278 0.411377 12.6936 0.577321 11.9153 0.899733C11.137 1.22215 10.4298 1.69471 9.83406 2.29045L12.1916 4.64711C12.4777 4.36092 12.8175 4.13391 13.1914 3.97902C13.5653 3.82413 13.966 3.74442 14.3707 3.74442C14.7754 3.74442 15.1762 3.82413 15.5501 3.97902C15.924 4.13391 16.2637 4.36092 16.5499 4.64711L18.9066 2.29045ZM9.83406 2.29045L8.82156 3.30295L11.1791 5.65961L12.1916 4.64711L9.83406 2.29045ZM7.80906 4.64711L8.82156 5.65961L11.1791 3.30295L10.1666 2.29045L7.80906 4.64711ZM3.45073 4.64711C3.73689 4.36092 4.07662 4.13391 4.45052 3.97902C4.82443 3.82413 5.22518 3.74442 5.62989 3.74442C6.03461 3.74442 6.43536 3.82413 6.80926 3.97902C7.18316 4.13391 7.5229 4.36092 7.80906 4.64711L10.1666 2.29045C9.57087 1.69471 8.86366 1.22215 8.08533 0.899733C7.30699 0.577321 6.47278 0.411377 5.63031 0.411377C4.78784 0.411377 3.95362 0.577321 3.17529 0.899733C2.39696 1.22215 1.68975 1.69471 1.09406 2.29045L3.45073 4.64711Z" fill="black"/>
    </g>
</svg>