<svg width="9" height="7" viewBox="0 0 9 7" fill="none" xmlns="http://www.w3.org/2000/svg">
    <path d="M2.70757 1.29296C2.61532 1.19745 2.50498 1.12127 2.38297 1.06886C2.26097 1.01645 2.12975 0.988862 1.99697 0.987709C1.86419 0.986555 1.73251 1.01186 1.60962 1.06214C1.48672 1.11242 1.37507 1.18667 1.28117 1.28056C1.18728 1.37446 1.11303 1.48611 1.06275 1.60901C1.01247 1.7319 0.987165 1.86358 0.988319 1.99636C0.989473 2.12914 1.01706 2.26036 1.06947 2.38236C1.12188 2.50437 1.19806 2.61471 1.29357 2.70696L5.00057 6.41396L8.70757 2.70696C8.88973 2.51836 8.99052 2.26576 8.98824 2.00356C8.98596 1.74136 8.8808 1.49055 8.69539 1.30514C8.50998 1.11973 8.25917 1.01456 7.99697 1.01229C7.73477 1.01001 7.48217 1.1108 7.29357 1.29296L5.00057 3.58596L2.70757 1.29296Z" fill="black"/>
</svg>