<svg width="126" height="30" viewBox="0 0 126 30" fill="none" xmlns="http://www.w3.org/2000/svg">
    <path d="M35 20.25H38.5V13.0625L41.9375 20.25H44.4375L47.875 13.0625V20.25H51.4375V9H46.75L43.3125 16L39.9375 9H35V20.25Z" fill="black"/>
    <path d="M62.8125 9H58L52.8125 20.25H56.4375L57.3125 18.3125H63.3125L64.1875 20.25H68.0625L62.8125 9ZM58.5 15.8125L60.375 11.625L62.3125 15.8125H58.5Z" fill="black"/>
    <path d="M82.8755 19.125V17.6875C82.8755 16 81.813 15.1875 80.313 14.875C81.688 14.5625 82.813 13.6875 82.813 12.1875V12.0625C82.813 10.6875 82.2505 9 78.0005 9H69.563V20.25H73.188V16.5625H77.0005C78.6255 16.5625 79.1255 17.0625 79.1255 18.5625V19.5C79.1255 20 79.188 20.1875 79.188 20.25H82.938V20.1875C82.938 20.0625 82.8755 19.8125 82.8755 19.125ZM79.0005 12.75C79.0005 13.3125 78.688 13.8125 77.5005 13.8125H73.188V11.6875H77.5005C78.688 11.6875 79.0005 12.1875 79.0005 12.75Z" fill="black"/>
    <path d="M94.187 20.25H98.8745L92.7495 14.125L98.562 9H94.1245L89.1245 13.5V9H85.437V20.25H89.1245V15.125L94.187 20.25Z" fill="black"/>
    <path d="M100.312 9V20.25H111.313V17.6875H103.938V15.9375H111V13.25H103.938V11.625H111.25V9H100.312Z" fill="black"/>
    <path d="M113 11.875H117.5V20.25H121.125V11.875H125.625V9H113V11.875Z" fill="black"/>
    <path d="M15 30C23.2843 30 30 23.2843 30 15C30 6.71573 23.2843 0 15 0C6.71573 0 0 6.71573 0 15C0 23.2843 6.71573 30 15 30Z" fill="#FFC800"/>
    <path d="M8.87451 9H17.812C21.062 9 21.9995 10.3125 21.9995 11.6875V11.875C21.9995 13.375 20.687 14.0625 19.812 14.1875C21.062 14.375 22.562 15.0625 22.562 17V17.125C22.562 18.875 21.4995 20.4375 17.812 20.4375H8.87451V9ZM12.4995 11.5625V13.375H16.937C17.8745 13.375 18.1245 13 18.1245 12.5C18.1245 11.9375 17.8745 11.625 16.937 11.625H12.4995V11.5625ZM12.4995 15.75V17.75H17.2495C18.3745 17.75 18.6245 17.1875 18.6245 16.75V16.6875C18.6245 16.1875 18.3745 15.75 17.2495 15.75H12.4995Z" fill="black"/>
</svg>